<svg id="Layer_1" data-name="Layer 1" xmlns="http://www.w3.org/2000/svg" viewBox="0 0 1011.81 315.57"><defs><style>.cls-1{fill:#fff;}</style></defs><path class="cls-1" d="M223.7,89.26H190.32V90.8c3.85,0,7.12,2.6,9.72,7.7l58.38,124.26H260l13.17-28.27-.77-1.74Z"/><path class="cls-1" d="M342.19,214.49c-2.6-4.52-3.85-10-3.85-16.54V114.08c0-6.54,1.25-12,3.85-16.54s5.58-6.74,9.14-6.74V89.26H320.74l-7.21,15.39V198c0,6.54-1.25,12-3.75,16.54s-5.68,6.73-9.23,6.73v1.54h50.78v-1.54C347.77,221.22,344.69,219,342.19,214.49Z"/><path class="cls-1" d="M208.69,214.49a37.66,37.66,0,0,1-4.42-14v1a39.93,39.93,0,0,1-4.72,13.08c-2.59,4.52-5.67,6.73-9.23,6.73v1.54h27.51v-1.54C214.27,221.22,211.19,219,208.69,214.49Z"/><path class="cls-1" d="M409.76,103.59A62.82,62.82,0,0,1,416,125.52h.29l21-12.21a45.56,45.56,0,0,0-8.95-12A42.48,42.48,0,0,0,415,92.82a48.42,48.42,0,0,0-17.9-3.08Q404.71,91.92,409.76,103.59Z"/><path class="cls-1" d="M527.66,104.51c6.35,9.14,10.87,20.87,13.66,35.39h.39l19.81-20.29a58.21,58.21,0,0,0-13.27-16.74,63.59,63.59,0,0,0-19.91-11.63,69,69,0,0,0-20.2-4.14C515.83,89.7,522.28,95.47,527.66,104.51Z"/><path class="cls-1" d="M582.1,162.26a72.81,72.81,0,0,1,5.87-22.5c3-7.6,6.54-12.22,10.77-13.66a52.66,52.66,0,0,0-18.18,4.23,55.48,55.48,0,0,0-18.37,13.76l19.72,18.17Z"/><path class="cls-1" d="M602.49,168a33.51,33.51,0,0,1,7.31.76l-1.15-.47a48.45,48.45,0,0,0-15.78-2.22,45.25,45.25,0,0,0-17.41,3.18,26.9,26.9,0,0,0-12.11,10,27.93,27.93,0,0,0-4.27,12.55,55.14,55.14,0,0,1-22.47,20.78q-14.28,6.91-27.12,6.92-26,0-38.57-25.58Q460.09,172,460.14,138.37c0-11.84,1.74-21.36,5.29-28.76A46.47,46.47,0,0,1,479.48,92.1a38.26,38.26,0,0,1,5.67-3.46,60.34,60.34,0,0,0-19.33,7.5,63.21,63.21,0,0,0-23.56,24.72A71.83,71.83,0,0,0,434,155.2a78.54,78.54,0,0,0,.68,10.4h0a36.67,36.67,0,0,1-12.39,13.12,30.56,30.56,0,0,1-16.73,5A24.64,24.64,0,0,1,387,176c-4.91-5.1-8.47-12-10.87-20.68a105.24,105.24,0,0,1-3.66-28.57c0-11.25,1.83-20.39,5.39-27.22,2.31-4.52,5.38-7.5,9.14-9a44.23,44.23,0,0,0-16.55,5.87,45.16,45.16,0,0,0-17,17.79,54.45,54.45,0,0,0,0,49.54,45.16,45.16,0,0,0,17,17.79q11,6.63,26.26,6.64c7.21,0,13.37-1,18.28-2.89a35.18,35.18,0,0,0,12.31-7.5,51.77,51.77,0,0,0,7.77-9.57,69.26,69.26,0,0,0,7.22,21.35,63.21,63.21,0,0,0,23.56,24.72q14.56,8.81,34.62,9.23h2a74.5,74.5,0,0,0,25-3.94,62.65,62.65,0,0,0,19-10.48,58.63,58.63,0,0,0,12.35-13.83c0,.39,0,.78,0,1.18a27.25,27.25,0,0,0,3.75,14,26.7,26.7,0,0,0,11,10.1c4.81,2.5,10.68,3.75,17.7,3.75,6.73,0,11.92-.57,15.58-1.83a8.57,8.57,0,0,1-1.83.1,8.27,8.27,0,0,1-2.6-.48,33,33,0,0,1-12.11-10.2c-3.37-4.52-5.1-10.19-5.1-17Q585.9,170.93,602.49,168Z"/><path class="cls-1" d="M747.53,214.59c-2.5-4.52-3.75-10-3.75-16.55V86.19h-1.54L706,89.26V90.8c3.56,0,6.64,2.21,9.14,6.74s3.84,10,3.84,16.54v84c0,6.55-1.25,12-3.84,16.55s-5.58,6.63-9.14,6.63-6.54-2.21-9.14-6.63-3.75-10-3.75-16.55V86.19h-1.54l-36.26,3.07V90.8c3.56,0,6.64,2.21,9.14,6.74s3.85,10,3.85,16.54v84c0,6.55-1.25,12-3.85,16.55s-5.58,6.63-9.14,6.63-5.86-2.11-7.11-6.34-2-9.82-2-16.84V172.46A58,58,0,0,0,641.54,149a38.22,38.22,0,0,0-14-16.83c-6.06-4-13.66-6.16-22.8-6.25,5.39,1.63,9.52,7.89,12.31,18.85a116.63,116.63,0,0,1,4.24,30.87l.09.1c.1,22.7.19,35,.39,37,3,7.79,10.19,11.64,21.64,11.64a49.12,49.12,0,0,0,11.92-1.64H756.67v-1.54C753.11,221.22,750.13,219,747.53,214.59Z"/><path class="cls-1" d="M811.37,131.34a77.28,77.28,0,0,1,7.11,14,78.25,78.25,0,0,1,3.94,13.75h.29l20-12.31a42.91,42.91,0,0,0-16.45-15.39,46.34,46.34,0,0,0-20.1-5.39A16.13,16.13,0,0,1,811.37,131.34Z"/><path class="cls-1" d="M789.24,211.56a65.11,65.11,0,0,1-7.5-20.39h-.19l-19.91,12.31a42.56,42.56,0,0,0,16.83,15.29,52.22,52.22,0,0,0,21.16,5.48Q793.72,221.24,789.24,211.56Z"/><path class="cls-1" d="M839.64,182.51a39.84,39.84,0,0,0-11.54-9.9,146.11,146.11,0,0,0-14.62-7.41c-4.33-2-8.46-4-12.21-6.16a33,33,0,0,1-9.33-7.31,15,15,0,0,1-3.66-10.19,21.56,21.56,0,0,1,3.46-11.45,14.33,14.33,0,0,1,3.08-3.55,58.69,58.69,0,0,0-11.16,2.69,33.8,33.8,0,0,0-14.42,9.52,22.13,22.13,0,0,0-5.39,14.81c0,6.06,1.64,11.06,4.81,15a39.78,39.78,0,0,0,12,10,135.52,135.52,0,0,0,15,7.5c4.32,1.92,8.46,3.94,12.21,6A34.65,34.65,0,0,1,817,199a13.42,13.42,0,0,1,3.56,9.43,19.18,19.18,0,0,1-4,11.83,13.89,13.89,0,0,1-3.66,3.46,49,49,0,0,0,10.78-2.6,36.93,36.93,0,0,0,14.9-9.33,20.55,20.55,0,0,0,5.68-14.52Q844.26,188.43,839.64,182.51Z"/><rect class="cls-1" x="390.03" y="207.33" width="14.06" height="14.06" transform="translate(-35.28 343.55) rotate(-45)"/><rect class="cls-1" x="497.21" y="155.23" width="14.06" height="14.06" transform="translate(32.95 404.08) rotate(-45)"/><polygon class="cls-1" points="789.12 107.04 778.99 86.19 759.27 96.72 771.63 107.44 768.27 117.17 789.12 107.04"/></svg>