<svg width="1050" height="949" viewBox="0 0 1050 949" fill="none" xmlns="http://www.w3.org/2000/svg">
<g id="bike illustration">
<rect width="1050" height="949" fill="white"/>
<path id="background" d="M454.662 359.141C410.259 358.009 313.798 358.769 283.183 370.862L236.772 361.561C174.007 418.206 47.4158 533.099 43.1656 539.513C38.9154 545.926 93.064 607.172 120.67 636.993L219.29 869.8L325.381 892.425L681.734 892.109C745.786 908.309 875.193 939.733 880.401 935.825C886.912 930.941 906.583 773.31 915.182 759.488C922.061 748.43 927.075 545.22 928.723 444.998L742.701 317.921L616.096 336.179L572.235 328.536L454.662 359.141Z" fill="url(#paint0_linear_2_32)"/>
<path id="back-wheel" d="M341.763 640.697L338.876 643.584L341.763 646.471L344.65 643.584L341.763 640.697ZM420.452 668.074L416.369 668.074L416.369 672.157L420.452 672.157L420.452 668.074ZM341.763 852.829L344.65 849.942L341.763 847.055L338.876 849.942L341.763 852.829ZM263.074 825.452L267.157 825.452L267.157 821.369L263.074 821.369L263.074 825.452ZM444.891 775.689L442.85 772.153L439.314 774.195L441.355 777.73L444.891 775.689ZM342.439 748.237L342.568 747.754L341.402 747.442L342.006 748.487L342.439 748.237ZM398.08 844.611L399.137 840.667L395.193 839.611L394.137 843.554L398.08 844.611ZM239.419 776.025L242.955 778.066L244.996 774.531L241.461 772.49L239.419 776.025ZM341.871 748.573L342.001 749.056L343.167 748.744L342.121 748.14L341.871 748.573ZM245.498 692.932L246.554 696.875L250.498 695.819L249.441 691.875L245.498 692.932ZM469.5 747.5C469.5 817.64 412.64 874.5 342.5 874.5V875.5C413.192 875.5 470.5 818.192 470.5 747.5H469.5ZM342.5 874.5C272.36 874.5 215.5 817.64 215.5 747.5H214.5C214.5 818.192 271.808 875.5 342.5 875.5V874.5ZM215.5 747.5C215.5 677.36 272.36 620.5 342.5 620.5V619.5C271.808 619.5 214.5 676.808 214.5 747.5H215.5ZM342.5 620.5C412.64 620.5 469.5 677.36 469.5 747.5H470.5C470.5 676.808 413.192 619.5 342.5 619.5V620.5ZM341.263 643.584V746.763H342.263V643.584H341.263ZM342.117 747.117L418.764 670.469L418.057 669.762L341.409 746.409L342.117 747.117ZM342.263 849.942V746.763H341.263V849.942H342.263ZM341.409 746.409L264.762 823.057L265.469 823.764L342.117 747.117L341.409 746.409ZM442.232 774.459L342.568 747.754L342.31 748.72L441.973 775.425L442.232 774.459ZM342.006 748.487L396.204 842.361L397.07 841.861L342.872 747.987L342.006 748.487ZM242.337 775.761L342.001 749.056L341.742 748.09L242.078 774.795L242.337 775.761ZM342.121 748.14L248.248 693.942L247.748 694.808L341.621 749.006L342.121 748.14Z" fill="white"/>
<path id="front-wheel" d="M734.225 634.899L731.339 637.786L734.225 640.673L737.112 637.786L734.225 634.899ZM816.822 663.629H812.739V667.712H816.822V663.629ZM734.225 857.551L737.112 854.665L734.225 851.778L731.339 854.665L734.225 857.551ZM651.629 828.822L655.712 828.822L655.712 824.739L651.629 824.739L651.629 828.822ZM842.469 776.588L840.427 773.052L836.892 775.094L838.933 778.629L842.469 776.588ZM734.936 747.775L735.065 747.292L733.899 746.979L734.503 748.025L734.936 747.775ZM793.34 848.934L794.397 844.99L790.453 843.934L789.397 847.877L793.34 848.934ZM626.806 776.941L630.342 778.983L632.383 775.447L628.848 773.406L626.806 776.941ZM734.339 748.128L734.469 748.611L735.635 748.299L734.589 747.695L734.339 748.128ZM633.18 689.724L634.237 693.667L638.18 692.61L637.123 688.667L633.18 689.724ZM868.5 747C868.5 820.73 808.73 880.5 735 880.5V881.5C809.282 881.5 869.5 821.282 869.5 747H868.5ZM735 880.5C661.27 880.5 601.5 820.73 601.5 747H600.5C600.5 821.282 660.718 881.5 735 881.5V880.5ZM601.5 747C601.5 673.27 661.27 613.5 735 613.5V612.5C660.718 612.5 600.5 672.718 600.5 747H601.5ZM735 613.5C808.73 613.5 868.5 673.27 868.5 747H869.5C869.5 672.718 809.282 612.5 735 612.5V613.5ZM733.725 637.786V746.225H734.725V637.786H733.725ZM734.579 746.579L815.134 666.024L814.427 665.317L733.872 745.872L734.579 746.579ZM734.725 854.665V746.225H733.725V854.665H734.725ZM733.872 745.872L653.317 826.427L654.024 827.134L734.579 746.579L733.872 745.872ZM839.81 775.358L735.065 747.292L734.806 748.258L839.551 776.324L839.81 775.358ZM734.503 748.025L791.464 846.684L792.33 846.184L735.369 747.525L734.503 748.025ZM629.724 776.677L734.469 748.611L734.21 747.645L629.465 775.711L629.724 776.677ZM734.589 747.695L635.93 690.734L635.43 691.6L734.089 748.561L734.589 747.695Z" fill="white"/>
<g id="body-bike">
<path d="M330 763.598C358.918 712.705 417.453 609.347 420.248 603.064L454.601 623.683L330 763.598Z" fill="#929292"/>
<path d="M742.061 768.88C707.998 720.303 638.712 621.785 634.074 616.33L673.508 603.736L742.061 768.88Z" fill="#929292"/>
<path d="M679.93 554.952H425.488V542.188H655.476V494.568C655.476 482 641.502 438.602 634.515 418.474H655.476L679.93 554.952Z" fill="#929292"/>
<path d="M543.102 679.158C549.158 683.085 636.068 598.318 678.766 555.443L661.881 547.588L523.888 664.921C527.77 668.03 537.047 675.23 543.102 679.158Z" fill="#929292"/>
<path d="M407.439 666.393H448.88C449.325 615.059 449.821 533.76 449.376 496.532H407.439L365.517 466.585L397.541 458.239H448.778L529.711 477.386L507.003 496.532H465.531L479.85 666.393H529.711L550.672 687.013L365.517 718.923L407.439 666.393Z" fill="#929292"/>
<path d="M676.437 637.92V552.007L644.413 618.773L676.437 637.92Z" fill="#929292"/>
<path d="M429.564 552.007L418.502 604.536L429.564 618.773V552.007Z" fill="#929292"/>
<path d="M550.672 458.239L644.413 418.474L661.881 399.819L608.896 390L518.648 399.819L572.797 407.673H627.528L572.797 444.002H480.802L550.672 458.239Z" fill="#929292"/>
</g>
<g id="human">
<path d="M559.391 416.666L568.635 363.971L601.674 355.046L608.526 370.969L588.283 431.38L541.904 452.687L559.391 416.666Z" fill="#968A7F"/>
<path d="M486.114 218.017L482.602 219.246L549.462 250.451L599.238 293.702L607.558 359.124L563.339 368.118L555.632 336.816L529.85 362.243L505.823 403.715L435.467 373.605L399.024 367.212L410.515 301.712L445.549 232.221L482.602 219.246L476.264 216.289L486.114 218.017Z" fill="#5E5E5E"/>
<path d="M464.264 380.18L463.469 309.479L478.779 297.444L486.927 334.915L508.588 387.956L552.393 456.557L519.673 437.619L464.264 380.18Z" fill="#968A7F"/>
<path d="M395 414.5C381 401.3 389.167 376.667 395 366H458C469.6 366 502.833 398.333 518 414.5V484.5L508 505.5L488.5 545.5L458 505.5L427 461.5C422.167 451.333 409 427.7 395 414.5Z" fill="#C4C4C4"/>
</g>
<path id="leg" d="M497 516.5L509.5 478L548.5 516.5L539 575V680L509.5 670.5L487 602.5V544L497 516.5Z" fill="#968A7F"/>
<path id="foot" d="M494.087 679.161L509.45 664.188L542.549 681.949L569.898 706.838L571.542 729.439L487 698.574L494.087 679.161Z" fill="#5D5D5D"/>
<path id="head" d="M474.692 207.891C475.024 200.846 476.172 187.577 478.414 179.101L452.617 174.575L470.778 146.288L490.33 118.752L538.195 135.271L587.003 166.677L600.853 200.58L574.993 235.132L559.934 227.707L557.264 232.021L537.626 260.05L513.987 255.903L487.782 234.553L474.692 207.891Z" fill="#968A7F"/>
</g>
<defs>
<linearGradient id="paint0_linear_2_32" x1="42.9293" y1="627.04" x2="928.723" y2="627.04" gradientUnits="userSpaceOnUse">
<stop stop-color="#9796F0"/>
<stop offset="1" stop-color="#FBC7D4"/>
</linearGradient>
</defs>
</svg>
